<?xml version="1.0" encoding="UTF-8"?>
<svg version="1.1" xmlns="http://www.w3.org/2000/svg" width="256" height="256">
    <path
        d="M0 0 C84.48 0 168.96 0 256 0 C256 84.48 256 168.96 256 256 C171.52 256 87.04 256 0 256 C0 171.52 0 87.04 0 0 Z "
        fill="#252525" transform="translate(0,0)" />
    <path
        d="M0 0 C17.82 0 35.64 0 54 0 C54 84.48 54 168.96 54 256 C-20.58 256 -95.16 256 -172 256 C-167.50385126 249.25577689 -167.50385126 249.25577689 -165.30078125 246.73828125 C-164.81826904 246.18221191 -164.33575684 245.62614258 -163.83862305 245.05322266 C-163.33500244 244.47878418 -162.83138184 243.9043457 -162.3125 243.3125 C-158.54072933 238.96519872 -154.81528683 234.59428377 -151.1875 230.125 C-147.55986597 225.65665516 -143.82890945 221.29675047 -140 217 C-139.16339844 217.49628906 -138.32679688 217.99257812 -137.46484375 218.50390625 C-110.13172492 234.53827654 -80.06246893 242.88180914 -48.28515625 234.96484375 C-47.20105469 234.64644531 -46.11695313 234.32804688 -45 234 C-43.80246094 233.67128906 -42.60492188 233.34257812 -41.37109375 233.00390625 C-14.67918072 224.96014935 8.2794035 207.05936817 21.70483398 182.52905273 C23.54013871 179.05258047 25.29218606 175.54061262 27 172 C27.43183594 171.11828125 27.86367187 170.2365625 28.30859375 169.328125 C29.37880164 166.91286984 30.21703408 164.52369946 31 162 C31.36996094 160.82824219 31.73992187 159.65648437 32.12109375 158.44921875 C34.904504 148.57612432 35.36242804 138.91856207 35.375 128.6875 C35.37661133 127.43678711 35.37822266 126.18607422 35.37988281 124.89746094 C35.08348895 99.95427103 26.90716042 75.68157527 10 57 C9.33871094 56.19820312 8.67742187 55.39640625 7.99609375 54.5703125 C-0.83983815 44.12340959 -11.69682585 35.95071893 -24 30 C-23.21625 29.113125 -22.4325 28.22625 -21.625 27.3125 C-17.81683913 22.87563333 -14.29531198 18.22667269 -10.7578125 13.57421875 C-7.23094883 9.00328354 -3.60661809 4.50827262 0 0 Z "
        fill="#336598" transform="translate(202,0)" />
    <path
        d="M0 0 C66.66 0 133.32 0 202 0 C198.3633039 5.45504414 195.17951653 10.19309533 191 15.0625 C187.15896436 19.59399371 183.48185283 24.18768308 180 29 C175.63036925 28.41303468 171.94325075 27.30735933 167.875 25.625 C154.69013841 20.4172807 142.43742903 18.81994044 128.375 18.8125 C126.58255859 18.79413086 126.58255859 18.79413086 124.75390625 18.77539062 C99.9069994 18.73501104 75.56964091 27.19414219 57 44 C56.19820312 44.66128906 55.39640625 45.32257812 54.5703125 46.00390625 C34.45742767 63.01527146 21.9714345 87.99726636 19 114 C16.7776514 147.0386116 23.96822863 175.93437428 45.7722168 201.38061523 C53.04000409 209.74101904 53.04000409 209.74101904 62 216 C60.29956396 220.14417645 57.35843319 223.24373037 54.4375 226.5625 C53.34539299 227.81947804 52.25425591 229.07729941 51.1640625 230.3359375 C50.62555664 230.95694336 50.08705078 231.57794922 49.53222656 232.21777344 C45.93233682 236.40502569 42.47995168 240.71310301 39 245 C34.545 250.445 34.545 250.445 30 256 C20.1 256 10.2 256 0 256 C0 171.52 0 87.04 0 0 Z "
        fill="#FDCB33" transform="translate(0,0)" />
    <path
        d="M0 0 C0.495 0.99 0.495 0.99 1 2 C-0.01578125 2.36351563 -1.0315625 2.72703125 -2.078125 3.1015625 C-17.96807331 8.8112322 -17.96807331 8.8112322 -32 18 C-30.98164062 17.54109375 -29.96328125 17.0821875 -28.9140625 16.609375 C-5.97840505 6.56116408 22.61830948 1.0007577 47 9 C48.75183594 9.54527344 48.75183594 9.54527344 50.5390625 10.1015625 C57.95410824 12.56265905 64.55181876 15.58046005 71 20 C71.69206543 20.41813965 72.38413086 20.8362793 73.09716797 21.26708984 C75 23 75 23 75.51757812 25.36914062 C75.5243457 26.74875977 75.5243457 26.74875977 75.53125 28.15625 C75.53898437 29.69152344 75.53898437 29.69152344 75.546875 31.2578125 C75.53140625 32.32773438 75.5159375 33.39765625 75.5 34.5 C75.52320313 36.05847656 75.52320313 36.05847656 75.546875 37.6484375 C75.50083766 46.87892383 73.88084192 55.31903738 67.375 62.1875 C64.35831382 65 64.35831382 65 62 65 C61.46375 63.9275 60.9275 62.855 60.375 61.75 C58.17625061 57.95984808 56.01996146 55.93267378 52 54 C46.27501733 53.18214533 43.22786652 53.91763336 38.54296875 57.22265625 C36.32242308 59.59793861 36.32242308 59.59793861 34 66 C26.08 66 18.16 66 10 66 C9.01 63.69 8.02 61.38 7 59 C3.3683442 55.54992699 0.70308921 54.16066879 -4.3125 53.6875 C-9.38946676 54.11775142 -12.19768394 56.13093149 -15.6875 59.75 C-17.20403661 62.14780265 -17.20403661 62.14780265 -18.125 65.75 C-19.44369531 69.5791527 -21.29189226 71.30528073 -24.4375 73.8125 C-29.40686435 77.92115745 -32.10431607 82.55685428 -33 89 C-31.43657388 94.73256245 -27.73219457 97.68886386 -23 101 C-18.46387432 103.5918904 -13.73975178 105.80986189 -9 108 C-10.79935947 112.86836043 -12.8924238 116.72677522 -17 120 C-20.2639031 120.56274191 -21.85736222 120.57138869 -25 120 C-25.91007812 119.84015625 -26.82015625 119.6803125 -27.7578125 119.515625 C-40.85944707 116.7105753 -53.39521896 110.40717157 -61 99 C-62.96449607 81.77677135 -58.11818464 62.34227377 -53 46 C-52.76909668 45.26168945 -52.53819336 44.52337891 -52.30029297 43.76269531 C-50.70556472 38.77136031 -48.94187058 33.86658976 -47 29 C-46.73993164 28.34563965 -46.47986328 27.6912793 -46.21191406 27.01708984 C-41.52926068 15.61422705 -35.58628689 10.29213929 -24.40209961 5.49267578 C-16.47739373 2.24479707 -8.68385152 -0.44532572 0 0 Z "
        fill="#356EA0" transform="translate(105,67)" />
    <path
        d="M0 0 C5.43886459 -0.2343114 9.9255355 0.49489134 15.125 2.0625 C15.86202148 2.28220459 16.59904297 2.50190918 17.35839844 2.72827148 C24.40581083 4.94106147 30.76038775 8.01556189 37 12 C37.86109375 12.54914063 38.7221875 13.09828125 39.609375 13.6640625 C42.95406191 16.93223697 44.30812932 20.50572647 46 24.8125 C46.51481934 26.08565063 46.51481934 26.08565063 47.04003906 27.38452148 C52.08088591 40.00916355 55.91522999 52.66971578 58.59326172 65.99462891 C58.93962974 67.70235215 59.31272642 69.40461865 59.69140625 71.10546875 C60.9799397 77.49407168 61.28996043 83.87506217 61.4375 90.375 C61.48922363 91.66059814 61.48922363 91.66059814 61.54199219 92.97216797 C61.56982463 97.14457902 61.42547557 100.0519604 58.7578125 103.37890625 C48.59319491 113.0396122 33.8529877 120.85833526 19.51171875 120.7265625 C14.40407989 119.24908065 11.58485424 114.40436058 9 110 C9 109.34 9 108.68 9 108 C9.7734375 107.70867187 10.546875 107.41734375 11.34375 107.1171875 C19.69538096 103.83028324 26.72715275 100.45250447 32 93 C31.51273437 93.29132813 31.02546875 93.58265625 30.5234375 93.8828125 C6.34252187 107.86377827 -19.80827078 111.95862341 -47 105 C-55.94393202 102.13752234 -66.88572319 97.42874675 -73 90 C-73.21659851 85.34313193 -71.3732458 82.9894957 -68.4375 79.625 C-67.3029897 78.40602918 -66.16071192 77.19404829 -65 76 C-62.01913203 77.32913161 -60.12406794 78.78551726 -57.875 81.125 C-54.88728634 83.75856657 -52.85726459 84.46175819 -48.875 84.5625 C-44.82626202 84.27418078 -42.03949575 83.86070189 -39 81 C-38.24731239 79.64740306 -37.53912211 78.26947517 -36.8671875 76.875 C-36.33907471 75.78832031 -36.33907471 75.78832031 -35.80029297 74.6796875 C-35.53619629 74.12539062 -35.27209961 73.57109375 -35 73 C-31.10517784 72.76717927 -27.21214146 72.62543361 -23.3125 72.5 C-22.20970703 72.43296875 -21.10691406 72.3659375 -19.97070312 72.296875 C-16.79691397 72.22016711 -14.08632022 72.2439341 -11 73 C-8.59595616 75.35761814 -7.42404225 77.98727116 -6 81 C-3.12278399 83.82683674 -1.13133176 84.43125961 2.875 84.4375 C7.72141989 84.24535119 10.43197095 83.48505163 14 80 C15.34923535 77.48532607 16.53456737 74.92421768 17.71875 72.328125 C19.4950464 69.10046447 21.85941421 67.83200838 25 66 C29.18520354 61.71746614 31.3116556 57.63541981 33 52 C33.25559692 51.15187744 33.25559692 51.15187744 33.51635742 50.28662109 C34.14016353 47.33731871 34.22053369 44.49751257 34.31640625 41.484375 C34.35830078 40.23398438 34.40019531 38.98359375 34.44335938 37.6953125 C34.48267578 36.39335938 34.52199219 35.09140625 34.5625 33.75 C34.62727539 31.77386719 34.62727539 31.77386719 34.69335938 29.7578125 C34.79941917 26.50531212 34.90148024 23.25273608 35 20 C34.21625 19.69674805 33.4325 19.39349609 32.625 19.08105469 C30.0889063 18.03661431 28.20946594 16.8553151 26 15.25 C17.75142471 9.62722118 8.51217472 5.90201941 -1 3 C-0.67 2.01 -0.34 1.02 0 0 Z "
        fill="#F9D042" transform="translate(150,67)" />
    <path
        d="M0 0 C5.68228451 -0.27810123 10.32768649 0.66120208 15.75 2.3125 C16.50410156 2.52583984 17.25820312 2.73917969 18.03515625 2.95898438 C18.76089844 3.17490234 19.48664063 3.39082031 20.234375 3.61328125 C20.88631836 3.80704346 21.53826172 4.00080566 22.20996094 4.20043945 C24 5 24 5 27 8 C24.03 7.01 21.06 6.02 18 5 C17.67 5.99 17.34 6.98 17 8 C12.21384318 7.41632234 8.40189827 5.92082833 4 4 C1.22111387 3.30859478 1.22111387 3.30859478 -1 3 C-0.67 2.01 -0.34 1.02 0 0 Z "
        fill="#F2D84E" transform="translate(150,67)" />
    <path
        d="M0 0 C4.16138263 -0.08159574 7.9472484 0.01751476 12 1 C10.5625 3.125 10.5625 3.125 8 5 C4.87179891 4.75232831 1.98496791 3.94396421 -1 3 C-0.67 2.01 -0.34 1.02 0 0 Z "
        fill="#D9C64B" transform="translate(150,67)" />
    <path
        d="M0 0 C1.32 0.66 2.64 1.32 4 2 C3.4225 2.2475 2.845 2.495 2.25 2.75 C-0.41578402 4.23099112 -2.08202933 5.61907089 -4 8 C-4.73343428 11.06556598 -4.73343428 11.06556598 -5 14 C-5.33 14.66 -5.66 15.32 -6 16 C-8 14 -8 14 -8.0625 11.375 C-6.5471726 6.56160709 -3.47136485 3.57106463 0 0 Z "
        fill="#E3D14D" transform="translate(85,143)" />
    <path
        d="M0 0 C0.66 0.33 1.32 0.66 2 1 C-0.64 3.64 -3.28 6.28 -6 9 C-6.33 8.34 -6.66 7.68 -7 7 C-9.02463255 6.34786708 -9.02463255 6.34786708 -11 6 C-10.28972656 5.65066406 -9.57945312 5.30132812 -8.84765625 4.94140625 C-7.92855469 4.48636719 -7.00945312 4.03132812 -6.0625 3.5625 C-4.68771484 2.88380859 -4.68771484 2.88380859 -3.28515625 2.19140625 C-1.09471096 1.19474606 -1.09471096 1.19474606 0 0 Z "
        fill="#3D3A29" transform="translate(182,159)" />
    <path
        d="M0 0 C-1.0975223 2.99324263 -1.67682892 3.84610901 -4.625 5.25 C-5.40875 5.4975 -6.1925 5.745 -7 6 C-7 5.01 -7 4.02 -7 3 C-7.66 2.34 -8.32 1.68 -9 1 C-5.8035914 -0.06546953 -3.34252724 -0.07427838 0 0 Z "
        fill="#2E2D26" transform="translate(175,166)" />
    <path
        d="M0 0 C0.33 0.66 0.66 1.32 1 2 C-4.37305699 3.67357513 -4.37305699 3.67357513 -7 4 C-9 2.625 -9 2.625 -10 1 C-6.61981469 -0.04005702 -3.5219721 -0.08004482 0 0 Z "
        fill="#346997" transform="translate(105,67)" />
</svg>