<?xml version="1.0" encoding="UTF-8"?>
<svg version="1.1" xmlns="http://www.w3.org/2000/svg" width="318" height="159">
<path d="M0 0 C104.94 0 209.88 0 318 0 C318 52.47 318 104.94 318 159 C213.06 159 108.12 159 0 159 C0 106.53 0 54.06 0 0 Z " fill="#FEFEFE" transform="translate(0,0)"/>
<path d="M0 0 C5.23451705 4.15826121 10.26891477 8.50122031 11.671875 15.328125 C12.99732162 27.67134665 10.0569779 38.18697509 2.58203125 48.07421875 C-3.80988326 55.61641644 -10.54116569 60.26953009 -20.43359375 61.8125 C-30.30562926 62.42581642 -37.03033208 58.85497044 -44.421875 52.5390625 C-50.22544227 46.55731554 -55.46977303 37.46595088 -55.953125 29.015625 C-53.97381323 17.33768556 -45.70219249 9.99900359 -36.45703125 3.3515625 C-26.57109281 -3.0415912 -10.74658649 -6.75228001 0 0 Z " fill="#333333" transform="translate(142.328125,32.671875)"/>
<path d="M0 0 C0.66 0 1.32 0 2 0 C1.38166803 4.5275641 0.23670488 8.5390401 -1.375 12.8125 C-1.79523438 13.95332031 -2.21546875 15.09414063 -2.6484375 16.26953125 C-3.31746094 17.62111328 -3.31746094 17.62111328 -4 19 C-7 20 -7 20 -9.26953125 19.07421875 C-10.10871094 18.61660156 -10.94789062 18.15898438 -11.8125 17.6875 C-20.1142564 13.19554189 -27.5734568 11.87327709 -37 13 C-40.34170011 14.59100412 -42.32482397 16.64964793 -44 20 C-44.8247943 26.51722706 -43.68102182 31.55848948 -40 37 C-39.45988281 37.52851562 -38.91976562 38.05703125 -38.36328125 38.6015625 C-37 40 -37 40 -37 42 C-35.33275095 40.79247036 -33.66623622 39.58392683 -32 38.375 C-30.99453125 37.64925781 -29.9890625 36.92351563 -28.953125 36.17578125 C-26.49298438 34.36321733 -24.12439241 32.48351433 -21.75 30.5625 C-18.113611 27.8977777 -15.65312366 26.59886865 -11 27 C-5.37456075 29.95034505 -0.82482559 33.19789791 2 39 C3.06700968 44.35427379 2.12184153 49.23092019 -0.53515625 53.94921875 C-5.39811756 60.75736459 -11.16700518 66.21769603 -19.25 68.6875 C-30.05495293 69.91533556 -41.1995987 68.90020065 -51 64 C-49.20320856 58.35294118 -49.20320856 58.35294118 -47.8125 55.9375 C-46.68601819 53.25127414 -47.23051444 51.78733867 -48 49 C-49.31296296 46.68364667 -49.31296296 46.68364667 -50.9375 44.5 C-54.88861797 38.98590907 -56.61073315 34.34614486 -56.4296875 27.546875 C-55.03513569 19.28098611 -46.22538085 12.87284275 -40 8 C-32.45317926 2.66261033 -25.0959654 1.826662 -16 3 C-13.15312146 3.85041372 -10.56962919 4.84759403 -7.890625 6.125 C-6.04470801 7.14000306 -6.04470801 7.14000306 -4 7 C-2.68 4.69 -1.36 2.38 0 0 Z " fill="#333333" transform="translate(75,26)"/>
<path d="M0 0 C1.134375 0.020625 2.26875 0.04125 3.4375 0.0625 C7.74254405 8.444674 11.84232409 16.89456726 15.73535156 25.47680664 C20.04296001 34.96340467 24.45749922 44.34500111 29.4375 53.5 C30.10422729 54.74185059 30.10422729 54.74185059 30.78442383 56.00878906 C32.94186261 59.89094251 34.63143621 62.60441714 38.4375 65.0625 C38.4375 65.7225 38.4375 66.3825 38.4375 67.0625 C29.5275 67.0625 20.6175 67.0625 11.4375 67.0625 C11.4375 66.4025 11.4375 65.7425 11.4375 65.0625 C12.7575 64.4025 14.0775 63.7425 15.4375 63.0625 C15.71184802 58.41915972 15.01691322 55.51649799 12.9375 51.375 C10.4375 46.35416667 10.4375 46.35416667 10.4375 43.0625 C1.1975 43.3925 -8.0425 43.7225 -17.5625 44.0625 C-19.0784375 47.3728125 -19.0784375 47.3728125 -20.625 50.75 C-21.10851929 51.77806763 -21.10851929 51.77806763 -21.60180664 52.8269043 C-23.29425682 56.65001353 -23.90059666 59.06350256 -22.5625 63.0625 C-21.2425 63.3925 -19.9225 63.7225 -18.5625 64.0625 C-18.5625 65.0525 -18.5625 66.0425 -18.5625 67.0625 C-24.8325 67.0625 -31.1025 67.0625 -37.5625 67.0625 C-37.5625 66.0725 -37.5625 65.0825 -37.5625 64.0625 C-36.81097656 63.47984375 -36.05945313 62.8971875 -35.28515625 62.296875 C-32.10320629 59.68557604 -30.68201566 56.96626314 -29 53.3125 C-28.31229195 51.8757779 -27.62341291 50.43961593 -26.93359375 49.00390625 C-26.55960449 48.21773926 -26.18561523 47.43157227 -25.80029297 46.62158203 C-24.45582456 43.84195327 -23.06349549 41.09020551 -21.66015625 38.33984375 C-15.99021215 27.20972008 -10.67776724 16.05205969 -5.98828125 4.47265625 C-4.14870131 0.07278423 -4.14870131 0.07278423 0 0 Z " fill="#CA2727" transform="translate(260.5625,27.9375)"/>
<path d="M0 0 C6.11901279 3.57167046 10.8511741 8.06268606 12.7734375 15.03515625 C13.86830528 23.85053496 13.04655696 32.5119899 7.46484375 39.7265625 C4.03113262 43.30292038 1.56313048 44.24744898 -3.2890625 44.47265625 C-10.90298082 44.37325784 -15.13919117 41.06759215 -20.421875 35.87890625 C-27.30558424 28.46177304 -31.68217324 21.59629735 -31.49609375 11.27734375 C-30.97151373 6.9134462 -28.76612638 4.46502147 -25.63671875 1.55859375 C-18.44125454 -3.8874447 -8.06116858 -3.65643722 0 0 Z " fill="#FCFCFC" transform="translate(130.2265625,40.96484375)"/>
<path d="M0 0 C1.24007812 -0.00257812 2.48015625 -0.00515625 3.7578125 -0.0078125 C5.05460938 -0.00007813 6.35140625 0.00765625 7.6875 0.015625 C9.63269531 0.00402344 9.63269531 0.00402344 11.6171875 -0.0078125 C12.85726562 -0.00523438 14.09734375 -0.00265625 15.375 0 C16.51324219 0.00225586 17.65148437 0.00451172 18.82421875 0.00683594 C21.6875 0.265625 21.6875 0.265625 24.6875 2.265625 C24.12160156 2.53117187 23.55570313 2.79671875 22.97265625 3.0703125 C22.23917969 3.42351563 21.50570312 3.77671875 20.75 4.140625 C20.01910156 4.48867188 19.28820312 4.83671875 18.53515625 5.1953125 C16.52417541 6.1341227 16.52417541 6.1341227 15.6875 8.265625 C15.59263427 9.78655457 15.55955534 11.31156466 15.55810547 12.83544922 C15.55495331 13.78338348 15.55180115 14.73131775 15.54855347 15.70797729 C15.5505777 16.73504791 15.55260193 17.76211853 15.5546875 18.8203125 C15.55373077 19.87340607 15.55277405 20.92649963 15.55178833 22.01150513 C15.55110687 24.24253397 15.55295877 26.47356479 15.55712891 28.70458984 C15.562467 32.11951159 15.55718822 35.53430117 15.55078125 38.94921875 C15.55144225 41.11458362 15.55272385 43.27994842 15.5546875 45.4453125 C15.55266327 46.46833466 15.55063904 47.49135681 15.54855347 48.54537964 C15.55170563 49.49961823 15.55485779 50.45385681 15.55810547 51.43701172 C15.55890106 52.27481171 15.55969666 53.11261169 15.56051636 53.97579956 C15.68562097 56.23174151 15.94021384 58.13281892 16.6875 60.265625 C22.29367631 63.06871316 31.01787351 61.76658003 36.875 60.078125 C39.67336939 58.98222442 40.46381859 58.63164913 42.0625 56.015625 C42.26875 55.108125 42.475 54.200625 42.6875 53.265625 C43.20880346 51.98630376 43.75143766 50.71551527 44.3125 49.453125 C44.76625 48.40125 45.22 47.349375 45.6875 46.265625 C46.3475 46.265625 47.0075 46.265625 47.6875 46.265625 C47.54488906 48.45333744 47.39825539 50.64078782 47.25 52.828125 C47.16878906 54.04628906 47.08757812 55.26445313 47.00390625 56.51953125 C46.69883332 60.13144404 46.21467109 63.68048636 45.6875 67.265625 C40.08651035 67.29061054 34.48555417 67.30861821 28.88452148 67.32055664 C26.98477614 67.32554116 25.08503454 67.33233119 23.18530273 67.34106445 C12.63344013 67.38830745 2.19515878 67.3520329 -8.3125 66.265625 C-7.8175 65.275625 -7.8175 65.275625 -7.3125 64.265625 C-4.9984378 63.53486852 -2.66421131 62.86424242 -0.3125 62.265625 C0.51918459 51.99839354 0.84643209 41.80844657 0.81787109 31.51000977 C0.81243202 29.17392713 0.8178978 26.83803058 0.82421875 24.50195312 C0.82355908 22.99479125 0.82228022 21.48762949 0.8203125 19.98046875 C0.82233673 19.29291 0.82436096 18.60535126 0.82644653 17.8969574 C0.80723087 13.92321446 0.60913352 10.13880528 -0.3125 6.265625 C-2.34459948 4.69396597 -2.34459948 4.69396597 -4.875 3.890625 C-5.70128906 3.57351562 -6.52757812 3.25640625 -7.37890625 2.9296875 C-8.33603516 2.60097656 -8.33603516 2.60097656 -9.3125 2.265625 C-5.76378499 -0.10018501 -4.20658047 0.00833694 0 0 Z " fill="#353535" transform="translate(169.3125,28.734375)"/>
<path d="M0 0 C5.70416613 1.2049992 10.93685308 3.61864159 16.26416016 5.93603516 C33.4460374 14.13326425 33.4460374 14.13326425 51.95166016 15.62353516 C55.58633094 13.99953331 56.72574712 12.96240471 58.95166016 9.62353516 C59.19316789 7.10768624 59.19316789 7.10768624 59.07666016 4.43603516 C59.05861328 3.53498047 59.04056641 2.63392578 59.02197266 1.70556641 C58.99876953 1.01849609 58.97556641 0.33142578 58.95166016 -0.37646484 C59.94166016 0.28353516 60.93166016 0.94353516 61.95166016 1.62353516 C62.83277869 7.37065064 62.74660858 12.8807636 60.32666016 18.18603516 C56.00616136 22.62023128 52.91099914 24.87102364 46.63916016 25.24853516 C33.25653362 24.75410314 20.18381733 17.57741941 8.09619141 12.35791016 C-0.67563672 8.52211901 -0.67563672 8.52211901 -10.04833984 8.62353516 C-12.13078461 10.02541578 -13.83362657 11.53340461 -15.60302734 13.31103516 C-17.04833984 14.62353516 -17.04833984 14.62353516 -19.04833984 14.62353516 C-16.49062098 5.52942366 -9.351685 -1.15815065 0 0 Z " fill="#353535" transform="translate(123.04833984375,98.37646484375)"/>
<path d="M0 0 C4.15469542 3.70954948 6.79789853 7.23883001 7.4375 12.8125 C7.35408486 16.33518543 7.00435798 16.99418936 4.75 20 C0.00626347 23.28498187 -5.51334444 22.73858825 -11 22 C-15.82570506 20.74889128 -20.53340982 19.23329509 -25 17 C-24.80952091 13.12692523 -23.98826925 11.98817109 -21.19921875 9.17578125 C-20.0390404 8.20874547 -18.86801368 7.25460375 -17.6875 6.3125 C-17.10548828 5.82716797 -16.52347656 5.34183594 -15.92382812 4.84179688 C-10.54745597 0.42744827 -7.17953739 -2.10434717 0 0 Z " fill="#FBFBFB" transform="translate(60,64)"/>
<path d="M0 0 C3.85824955 3.34609253 5.68720006 6.94059241 7.75 11.5 C8.06582031 12.16386719 8.38164062 12.82773437 8.70703125 13.51171875 C10.30337277 16.97391399 11 19.12316218 11 23 C3.74 23 -3.52 23 -11 23 C-9.7110588 19.13317641 -8.70001005 16.15716152 -6.8359375 12.6953125 C-6.43632812 11.94765625 -6.03671875 11.2 -5.625 10.4296875 C-5.2125 9.66914062 -4.8 8.90859375 -4.375 8.125 C-3.95476562 7.34125 -3.53453125 6.5575 -3.1015625 5.75 C-2.0718978 3.83107943 -1.03652433 1.91522397 0 0 Z " fill="#FDFAFA" transform="translate(256,44)"/>
<path d="M0 0 C1.485 0.99 1.485 0.99 3 2 C3.29296875 4.6015625 3.29296875 4.6015625 3.1875 7.625 C3.16042969 8.62789062 3.13335937 9.63078125 3.10546875 10.6640625 C3.07066406 11.43492188 3.03585938 12.20578125 3 13 C0.89172945 9.83759418 0.66182535 8.49342531 0.375 4.8125 C0.30023438 3.91144531 0.22546875 3.01039062 0.1484375 2.08203125 C0.09945312 1.39496094 0.05046875 0.70789063 0 0 Z " fill="#2C2C2C" transform="translate(182,98)"/>
<path d="M0 0 C0.66 0 1.32 0 2 0 C1.25 5.75 1.25 5.75 -1 8 C-1.93065133 5.39417629 -2.14917407 4.35801776 -1.0625 1.75 C-0.711875 1.1725 -0.36125 0.595 0 0 Z " fill="#2A2A2A" transform="translate(75,26)"/>
</svg>
